<svg xmlns="http://www.w3.org/2000/svg" width="194.6" height="127.6" fill="none">
  <defs>
    <linearGradient id="a" x1="87.2" x2="27.9" y1="114.9" y2="1.7" gradientTransform="translate(-41.915221,45.477121)" gradientUnits="userSpaceOnUse">
      <stop stop-color="#960607"/>
      <stop offset="1" stop-color="#BC0C0E"/>
    </linearGradient>
  </defs>
  <rect width="143" height="114.9" x="-41.9" y="45.5" fill="url(#a)" rx="19" style="fill:url(#a)" transform="matrix(0.93964531,-0.34215011,0.67522908,0.73760809,0,0)"/>
  <rect width="143" height="114.9" x="-39" y="41.4" fill="#e30613" rx="19" transform="matrix(0.93964531,-0.34215011,0.67522908,0.73760809,0,0)"/>
  <path fill="#fff" d="M89.2 79.5 84 73.7l-21.5 7.8-2-2.2 13-4.7-4.8-5.2-13 4.7-1.6-1.8 21.6-7.8-5.4-5.9-33.5 12.2 19 21zm28.7-30-5.7-6.2L73 57.6l5.7 6.2 13.6-5 13.4 14.7 12-4.3-13.4-14.7zm48.5 1.9-5.7-6.2-19.7 7.2-13.4-14.7-12 4.4 19.2 20.8z"/>
</svg>
