<svg width="200" height="200" viewBox="0 0 200 200" fill="none" xmlns="http://www.w3.org/2000/svg">
<g clip-path="url(#clip0_1_296)">
<rect width="200" height="200" fill="#C70915"/>
<path fill-rule="evenodd" clip-rule="evenodd" d="M280.872 64.5035L280.245 62.7933L-37.4219 179.158L-36.7954 180.868L280.872 64.5035ZM-35.8557 183.433L-35.2291 185.144L282.438 68.7793L281.811 67.0688L-35.8557 183.433ZM283.378 71.3447L-34.2894 187.709L-33.663 189.419L284.004 73.0549L283.378 71.3447ZM284.944 75.6202L-32.7232 191.985L-32.0968 193.695L285.57 77.3304L284.944 75.6202ZM286.51 79.8957L-31.1571 196.26L-30.5306 197.97L287.137 81.6059L286.51 79.8957ZM288.076 84.1712L-29.5909 200.536L-28.9645 202.246L288.703 85.8814L288.076 84.1712ZM-38.3616 176.592L279.306 60.2279L278.679 58.5178L-38.988 174.882L-38.3616 176.592ZM-39.9277 172.317L277.739 55.9524L277.113 54.2423L-40.5542 170.607L-39.9277 172.317ZM-41.4939 168.041L276.173 51.6769L275.547 49.9668L-42.1204 166.331L-41.4939 168.041ZM-43.0601 163.766L274.607 47.4014L273.981 45.6909L-43.6866 162.055L-43.0601 163.766ZM-44.6264 159.49L273.041 43.1255L272.414 41.4154L-45.2528 157.78L-44.6264 159.49ZM-46.1925 155.215L271.475 38.85L270.848 37.1399L-46.819 153.504L-46.1925 155.215ZM-47.7587 150.939L269.909 34.5745L269.282 32.8643L-48.3851 149.229L-47.7587 150.939ZM-49.3248 146.664L268.342 30.299L267.716 28.5888L-49.9513 144.953L-49.3248 146.664ZM-50.891 142.388L266.776 26.0235L266.15 24.3129L-51.5176 140.677L-50.891 142.388ZM-52.4573 138.112L265.21 21.7476L264.583 20.0374L-53.0838 136.402L-52.4573 138.112ZM-54.0235 133.837L263.644 17.4721L263.017 15.7619L-54.6499 132.126L-54.0235 133.837ZM-55.5896 129.561L262.078 13.1966L261.451 11.4864L-56.2161 127.851L-55.5896 129.561ZM-57.1558 125.286L260.511 8.92105L259.885 7.21091L-57.7822 123.575L-57.1558 125.286ZM-58.7219 121.01L258.945 4.64556L258.319 2.935L-59.3485 119.3L-58.7219 121.01ZM-60.2882 116.734L257.379 0.369645L256.753 -1.34049L-60.9147 115.024L-60.2882 116.734ZM-61.8544 112.459L255.813 -3.90584L255.186 -5.61621L-62.4809 110.748L-61.8544 112.459Z" fill="#FF0513"/>
<path fill-rule="evenodd" clip-rule="evenodd" d="M187.774 277.185L189.252 275.838L-38.5212 25.6935L-40 27.04L187.774 277.185ZM-36.303 23.6737L191.471 273.818L192.949 272.472L-34.8242 22.3271L-36.303 23.6737ZM-32.606 20.3073L195.168 270.452L196.646 269.105L-31.1272 18.9608L-32.606 20.3073ZM-28.9091 16.941L198.865 267.086L200.343 265.739L-27.4303 15.5944L-28.9091 16.941ZM-25.2121 13.5746L202.562 263.719L204.04 262.373L-23.7333 12.2281L-25.2121 13.5746ZM-21.5151 10.2083L206.259 260.353L207.737 259.006L-20.0363 8.86173L-21.5151 10.2083ZM-17.8181 6.84192L209.956 256.986L211.434 255.64L-16.3393 5.49538L-17.8181 6.84192ZM-14.1211 3.47557L213.653 253.62L215.131 252.274L-12.6423 2.12903L-14.1211 3.47557ZM-10.4242 0.109213L217.35 250.254L218.828 248.907L-8.94536 -1.23733L-10.4242 0.109213ZM-6.72718 -3.25714L221.047 246.887L222.525 245.541L-5.24838 -4.60368L-6.72718 -3.25714ZM-3.0302 -6.62349L224.744 243.521L226.222 242.175L-1.5514 -7.97003L-3.0302 -6.62349ZM0.666785 -9.98985L228.44 240.155L229.919 238.808L2.14558 -11.3364L0.666785 -9.98985ZM4.36377 -13.3562L232.137 236.788L233.616 235.442L5.84256 -14.7027L4.36377 -13.3562ZM8.06075 -16.7226L235.834 233.422L237.313 232.075L9.53954 -18.0691L8.06075 -16.7226ZM11.7577 -20.0889L239.531 230.056L241.01 228.709L13.2365 -21.4354L11.7577 -20.0889ZM15.4547 -23.4553L243.228 226.689L244.707 225.343L16.9335 -24.8018L15.4547 -23.4553ZM19.1517 -26.8216L246.925 223.323L248.404 221.976L20.6305 -28.1682L19.1517 -26.8216ZM22.8487 -30.188L250.622 219.957L252.101 218.61L24.3275 -31.5345L22.8487 -30.188ZM26.5456 -33.5543L254.319 216.59L255.798 215.244L28.0244 -34.9009L26.5456 -33.5543ZM30.2426 -36.9207L258.016 213.224L259.495 211.877L31.7214 -38.2672L30.2426 -36.9207ZM33.9396 -40.287L261.713 209.858L263.192 208.511L35.4184 -41.6336L33.9396 -40.287ZM37.6366 -43.6534L265.41 206.491L266.889 205.145L39.1154 -44.9999L37.6366 -43.6534Z" fill="#FF0513"/>
<rect x="156" y="145.383" width="2.05422" height="60.7208" rx="1.02711" transform="rotate(-42.32 156 145.383)" fill="url(#paint0_linear_1_296)"/>
<rect x="147" y="158.383" width="2.05422" height="19.5907" rx="1.02711" transform="rotate(-42.32 147 158.383)" fill="url(#paint1_linear_1_296)"/>
<rect x="145" y="170.383" width="2.05422" height="67.0138" rx="1.02711" transform="rotate(-42.32 145 170.383)" fill="url(#paint2_linear_1_296)"/>
<rect x="110" y="154.383" width="2.05422" height="67.0138" rx="1.02711" transform="rotate(-42.32 110 154.383)" fill="url(#paint3_linear_1_296)"/>
<rect x="104" y="170.383" width="2.05422" height="67.0138" rx="1.02711" transform="rotate(-42.32 104 170.383)" fill="url(#paint4_linear_1_296)"/>
<rect x="100" y="180.383" width="2.05422" height="67.0138" rx="1.02711" transform="rotate(-42.32 100 180.383)" fill="url(#paint5_linear_1_296)"/>
<rect x="24" y="30.3828" width="2.05422" height="67.0138" rx="1.02711" transform="rotate(-42.32 24 30.3828)" fill="url(#paint6_linear_1_296)"/>
<rect x="47" y="18.3828" width="2.05422" height="67.0138" rx="1.02711" transform="rotate(-42.32 47 18.3828)" fill="url(#paint7_linear_1_296)"/>
<rect x="43" y="6.38281" width="2.05422" height="67.0138" rx="1.02711" transform="rotate(-42.32 43 6.38281)" fill="url(#paint8_linear_1_296)"/>
<rect x="15" y="-1.61719" width="2.05422" height="67.0138" rx="1.02711" transform="rotate(-42.32 15 -1.61719)" fill="url(#paint9_linear_1_296)"/>
<rect x="-8.99999" y="9.38281" width="2.05422" height="67.0138" rx="1.02711" transform="rotate(-42.32 -8.99999 9.38281)" fill="url(#paint10_linear_1_296)"/>
<rect x="-29" y="24.3828" width="2.05422" height="67.0138" rx="1.02711" transform="rotate(-42.32 -29 24.3828)" fill="url(#paint11_linear_1_296)"/>
<rect x="45" y="-20.6172" width="2.05422" height="67.0138" rx="1.02711" transform="rotate(-42.32 45 -20.6172)" fill="url(#paint12_linear_1_296)"/>
<rect x="92" y="15.3828" width="2.05422" height="24.6411" rx="1.02711" transform="rotate(-42.32 92 15.3828)" fill="url(#paint13_linear_1_296)"/>
<rect x="6.00001" y="40.3828" width="2.05422" height="24.6411" rx="1.02711" transform="rotate(-42.32 6.00001 40.3828)" fill="url(#paint14_linear_1_296)"/>
<rect x="140" y="135.383" width="2.05422" height="67.0138" rx="1.02711" transform="rotate(-42.32 140 135.383)" fill="url(#paint15_linear_1_296)"/>
<rect x="60.7968" y="167.485" width="1.81844" height="102.1" rx="0.909221" transform="rotate(69.8817 60.7968 167.485)" fill="url(#paint16_linear_1_296)"/>
<rect x="76.87" y="152" width="1.81844" height="102.1" rx="0.909221" transform="rotate(69.8817 76.87 152)" fill="url(#paint17_linear_1_296)"/>
<rect x="63.87" y="137" width="1.81844" height="102.1" rx="0.909221" transform="rotate(69.8817 63.87 137)" fill="url(#paint18_linear_1_296)"/>
<rect x="20.87" y="119" width="1.81844" height="102.1" rx="0.909221" transform="rotate(69.8817 20.87 119)" fill="url(#paint19_linear_1_296)"/>
<rect x="21.87" y="104" width="1.81844" height="102.1" rx="0.909221" transform="rotate(69.8817 21.87 104)" fill="url(#paint20_linear_1_296)"/>
<rect x="17.87" y="91" width="1.81844" height="102.1" rx="0.909221" transform="rotate(69.8817 17.87 91)" fill="url(#paint21_linear_1_296)"/>
<rect x="16.87" y="135" width="1.81844" height="102.1" rx="0.909221" transform="rotate(69.8817 16.87 135)" fill="url(#paint22_linear_1_296)"/>
<rect x="47.87" y="133" width="1.81844" height="102.1" rx="0.909221" transform="rotate(69.8817 47.87 133)" fill="url(#paint23_linear_1_296)"/>
<rect x="194.854" y="45.5884" width="1.81844" height="50.9639" rx="0.909221" transform="rotate(69.8817 194.854 45.5884)" fill="url(#paint24_linear_1_296)"/>
<rect x="224.854" y="39" width="1.81844" height="50.9639" rx="0.909221" transform="rotate(69.8817 224.854 39)" fill="url(#paint25_linear_1_296)"/>
<rect x="203.854" y="52" width="1.81844" height="50.9639" rx="0.909221" transform="rotate(69.8817 203.854 52)" fill="url(#paint26_linear_1_296)"/>
<rect x="208.854" y="21" width="1.81844" height="50.9639" rx="0.909221" transform="rotate(69.8817 208.854 21)" fill="url(#paint27_linear_1_296)"/>
<rect x="215.854" y="67" width="1.81844" height="50.9639" rx="0.909221" transform="rotate(69.8817 215.854 67)" fill="url(#paint28_linear_1_296)"/>
<rect x="233.854" y="70" width="1.81844" height="50.9639" rx="0.909221" transform="rotate(69.8817 233.854 70)" fill="url(#paint29_linear_1_296)"/>
<rect x="230.854" y="86" width="1.81844" height="50.9639" rx="0.909221" transform="rotate(69.8817 230.854 86)" fill="url(#paint30_linear_1_296)"/>
<rect x="194.44" y="64.7749" width="1.81844" height="19.6383" rx="0.909221" transform="rotate(69.8817 194.44 64.7749)" fill="url(#paint31_linear_1_296)"/>
<rect x="175.44" y="43" width="1.81844" height="19.6383" rx="0.909221" transform="rotate(69.8817 175.44 43)" fill="url(#paint32_linear_1_296)"/>
<rect x="198.44" y="15" width="1.81844" height="19.6383" rx="0.909221" transform="rotate(69.8817 198.44 15)" fill="url(#paint33_linear_1_296)"/>
<rect x="27.87" y="136" width="1.81844" height="20.463" rx="0.909221" transform="rotate(69.8817 27.87 136)" fill="url(#paint34_linear_1_296)"/>
<rect x="46.2145" y="153" width="1.81844" height="20.463" rx="0.909221" transform="rotate(69.8817 46.2145 153)" fill="url(#paint35_linear_1_296)"/>
<rect x="194.909" y="129.103" width="2.05422" height="109.309" rx="1.02711" transform="rotate(-42.32 194.909 129.103)" fill="url(#paint36_linear_1_296)"/>
<rect x="182" y="137.383" width="2.05422" height="28.0818" rx="1.02711" transform="rotate(-42.32 182 137.383)" fill="url(#paint37_linear_1_296)"/>
<rect x="183" y="153.383" width="2.05422" height="49.3888" rx="1.02711" transform="rotate(-42.32 183 153.383)" fill="url(#paint38_linear_1_296)"/>
<rect width="143.036" height="114.92" rx="19" transform="matrix(0.939645 -0.34215 0.675229 0.737608 -6 86.0869)" fill="url(#paint39_linear_1_296)"/>
<rect width="143.036" height="114.92" rx="19" transform="matrix(0.939645 -0.34215 0.675229 0.737608 -6 82.087)" fill="#E30613"/>
<path d="M91.915 117.724L86.5723 111.888L65.0547 119.723L63.0616 117.546L76.0688 112.809L71.3074 107.608L58.3002 112.344L56.6393 110.53L78.2535 102.66L72.9108 96.8234L39.3531 109.043L58.454 129.908L91.915 117.724Z" fill="white"/>
<path d="M120.569 87.7353L114.894 81.5362L75.5823 95.8507L81.2573 102.05L94.8931 97.0846L108.319 111.751L120.263 107.402L106.837 92.7357L120.569 87.7353Z" fill="white"/>
<path d="M169.078 89.6271L163.403 83.4279L143.723 90.594L130.297 75.9277L118.353 80.2766L137.454 101.142L169.078 89.6271Z" fill="white"/>
</g>
<defs>
<linearGradient id="paint0_linear_1_296" x1="157.027" y1="145.383" x2="157.027" y2="206.104" gradientUnits="userSpaceOnUse">
<stop stop-color="white"/>
<stop offset="1" stop-color="white" stop-opacity="0"/>
</linearGradient>
<linearGradient id="paint1_linear_1_296" x1="148.027" y1="158.383" x2="148.027" y2="177.974" gradientUnits="userSpaceOnUse">
<stop stop-color="white"/>
<stop offset="1" stop-color="white" stop-opacity="0"/>
</linearGradient>
<linearGradient id="paint2_linear_1_296" x1="146.027" y1="170.383" x2="146.027" y2="237.397" gradientUnits="userSpaceOnUse">
<stop stop-color="white"/>
<stop offset="1" stop-color="white" stop-opacity="0"/>
</linearGradient>
<linearGradient id="paint3_linear_1_296" x1="111.027" y1="154.383" x2="111.027" y2="221.397" gradientUnits="userSpaceOnUse">
<stop stop-color="white"/>
<stop offset="1" stop-color="white" stop-opacity="0"/>
</linearGradient>
<linearGradient id="paint4_linear_1_296" x1="105.027" y1="170.383" x2="105.027" y2="237.397" gradientUnits="userSpaceOnUse">
<stop stop-color="white"/>
<stop offset="1" stop-color="white" stop-opacity="0"/>
</linearGradient>
<linearGradient id="paint5_linear_1_296" x1="101.027" y1="180.383" x2="101.027" y2="247.397" gradientUnits="userSpaceOnUse">
<stop stop-color="white"/>
<stop offset="1" stop-color="white" stop-opacity="0"/>
</linearGradient>
<linearGradient id="paint6_linear_1_296" x1="25.0271" y1="30.3828" x2="25.0271" y2="97.3966" gradientUnits="userSpaceOnUse">
<stop stop-color="white" stop-opacity="0"/>
<stop offset="0.742708" stop-color="white"/>
</linearGradient>
<linearGradient id="paint7_linear_1_296" x1="48.0271" y1="18.3828" x2="48.0271" y2="85.3966" gradientUnits="userSpaceOnUse">
<stop stop-color="white" stop-opacity="0"/>
<stop offset="0.742708" stop-color="white"/>
</linearGradient>
<linearGradient id="paint8_linear_1_296" x1="44.0271" y1="6.38281" x2="44.0271" y2="73.3966" gradientUnits="userSpaceOnUse">
<stop stop-color="white" stop-opacity="0"/>
<stop offset="0.742708" stop-color="white"/>
</linearGradient>
<linearGradient id="paint9_linear_1_296" x1="16.0271" y1="-1.61719" x2="16.0271" y2="65.3966" gradientUnits="userSpaceOnUse">
<stop stop-color="white" stop-opacity="0"/>
<stop offset="0.742708" stop-color="white"/>
</linearGradient>
<linearGradient id="paint10_linear_1_296" x1="-7.97288" y1="9.38281" x2="-7.97288" y2="76.3966" gradientUnits="userSpaceOnUse">
<stop stop-color="white" stop-opacity="0"/>
<stop offset="0.742708" stop-color="white"/>
</linearGradient>
<linearGradient id="paint11_linear_1_296" x1="-27.9729" y1="24.3828" x2="-27.9729" y2="91.3966" gradientUnits="userSpaceOnUse">
<stop stop-color="white" stop-opacity="0"/>
<stop offset="0.742708" stop-color="white"/>
</linearGradient>
<linearGradient id="paint12_linear_1_296" x1="46.0271" y1="-20.6172" x2="46.0271" y2="46.3966" gradientUnits="userSpaceOnUse">
<stop stop-color="white" stop-opacity="0"/>
<stop offset="0.742708" stop-color="white"/>
</linearGradient>
<linearGradient id="paint13_linear_1_296" x1="93.0271" y1="15.3828" x2="93.0271" y2="40.0239" gradientUnits="userSpaceOnUse">
<stop stop-color="white" stop-opacity="0"/>
<stop offset="0.742708" stop-color="white"/>
</linearGradient>
<linearGradient id="paint14_linear_1_296" x1="7.02712" y1="40.3828" x2="7.02712" y2="65.0239" gradientUnits="userSpaceOnUse">
<stop stop-color="white" stop-opacity="0"/>
<stop offset="0.742708" stop-color="white"/>
</linearGradient>
<linearGradient id="paint15_linear_1_296" x1="141.027" y1="135.383" x2="141.027" y2="202.397" gradientUnits="userSpaceOnUse">
<stop stop-color="white"/>
<stop offset="1" stop-color="white" stop-opacity="0"/>
</linearGradient>
<linearGradient id="paint16_linear_1_296" x1="61.706" y1="167.485" x2="61.706" y2="269.585" gradientUnits="userSpaceOnUse">
<stop stop-color="white"/>
<stop offset="1" stop-color="white" stop-opacity="0"/>
</linearGradient>
<linearGradient id="paint17_linear_1_296" x1="77.7792" y1="152" x2="77.7792" y2="254.1" gradientUnits="userSpaceOnUse">
<stop stop-color="white"/>
<stop offset="1" stop-color="white" stop-opacity="0"/>
</linearGradient>
<linearGradient id="paint18_linear_1_296" x1="64.7792" y1="137" x2="64.7792" y2="239.1" gradientUnits="userSpaceOnUse">
<stop stop-color="white"/>
<stop offset="1" stop-color="white" stop-opacity="0"/>
</linearGradient>
<linearGradient id="paint19_linear_1_296" x1="21.7792" y1="119" x2="21.7792" y2="221.1" gradientUnits="userSpaceOnUse">
<stop stop-color="white"/>
<stop offset="1" stop-color="white" stop-opacity="0"/>
</linearGradient>
<linearGradient id="paint20_linear_1_296" x1="22.7792" y1="104" x2="22.7792" y2="206.1" gradientUnits="userSpaceOnUse">
<stop stop-color="white"/>
<stop offset="1" stop-color="white" stop-opacity="0"/>
</linearGradient>
<linearGradient id="paint21_linear_1_296" x1="18.7792" y1="91" x2="18.7792" y2="193.1" gradientUnits="userSpaceOnUse">
<stop stop-color="white"/>
<stop offset="1" stop-color="white" stop-opacity="0"/>
</linearGradient>
<linearGradient id="paint22_linear_1_296" x1="17.7792" y1="135" x2="17.7792" y2="237.1" gradientUnits="userSpaceOnUse">
<stop stop-color="white"/>
<stop offset="1" stop-color="white" stop-opacity="0"/>
</linearGradient>
<linearGradient id="paint23_linear_1_296" x1="48.7792" y1="133" x2="48.7792" y2="235.1" gradientUnits="userSpaceOnUse">
<stop stop-color="white"/>
<stop offset="1" stop-color="white" stop-opacity="0"/>
</linearGradient>
<linearGradient id="paint24_linear_1_296" x1="195.764" y1="45.5884" x2="195.764" y2="96.5523" gradientUnits="userSpaceOnUse">
<stop stop-color="white" stop-opacity="0"/>
<stop offset="1" stop-color="white"/>
</linearGradient>
<linearGradient id="paint25_linear_1_296" x1="225.764" y1="39" x2="225.764" y2="89.9639" gradientUnits="userSpaceOnUse">
<stop stop-color="white" stop-opacity="0"/>
<stop offset="1" stop-color="white"/>
</linearGradient>
<linearGradient id="paint26_linear_1_296" x1="204.764" y1="52" x2="204.764" y2="102.964" gradientUnits="userSpaceOnUse">
<stop stop-color="white" stop-opacity="0"/>
<stop offset="1" stop-color="white"/>
</linearGradient>
<linearGradient id="paint27_linear_1_296" x1="209.764" y1="21" x2="209.764" y2="71.9639" gradientUnits="userSpaceOnUse">
<stop stop-color="white" stop-opacity="0"/>
<stop offset="1" stop-color="white"/>
</linearGradient>
<linearGradient id="paint28_linear_1_296" x1="216.764" y1="67" x2="216.764" y2="117.964" gradientUnits="userSpaceOnUse">
<stop stop-color="white" stop-opacity="0"/>
<stop offset="1" stop-color="white"/>
</linearGradient>
<linearGradient id="paint29_linear_1_296" x1="234.764" y1="70" x2="234.764" y2="120.964" gradientUnits="userSpaceOnUse">
<stop stop-color="white" stop-opacity="0"/>
<stop offset="1" stop-color="white"/>
</linearGradient>
<linearGradient id="paint30_linear_1_296" x1="231.764" y1="86" x2="231.764" y2="136.964" gradientUnits="userSpaceOnUse">
<stop stop-color="white" stop-opacity="0"/>
<stop offset="1" stop-color="white"/>
</linearGradient>
<linearGradient id="paint31_linear_1_296" x1="195.349" y1="64.7749" x2="195.349" y2="84.4132" gradientUnits="userSpaceOnUse">
<stop stop-color="white" stop-opacity="0"/>
<stop offset="1" stop-color="white"/>
</linearGradient>
<linearGradient id="paint32_linear_1_296" x1="176.349" y1="43" x2="176.349" y2="62.6383" gradientUnits="userSpaceOnUse">
<stop stop-color="white" stop-opacity="0"/>
<stop offset="1" stop-color="white"/>
</linearGradient>
<linearGradient id="paint33_linear_1_296" x1="199.349" y1="15" x2="199.349" y2="34.6383" gradientUnits="userSpaceOnUse">
<stop stop-color="white" stop-opacity="0"/>
<stop offset="1" stop-color="white"/>
</linearGradient>
<linearGradient id="paint34_linear_1_296" x1="28.7792" y1="136" x2="28.7792" y2="156.463" gradientUnits="userSpaceOnUse">
<stop stop-color="white"/>
<stop offset="1" stop-color="white" stop-opacity="0"/>
</linearGradient>
<linearGradient id="paint35_linear_1_296" x1="47.1237" y1="153" x2="47.1237" y2="173.463" gradientUnits="userSpaceOnUse">
<stop stop-color="white"/>
<stop offset="1" stop-color="white" stop-opacity="0"/>
</linearGradient>
<linearGradient id="paint36_linear_1_296" x1="195.937" y1="129.103" x2="195.937" y2="238.412" gradientUnits="userSpaceOnUse">
<stop stop-color="white"/>
<stop offset="1" stop-color="white" stop-opacity="0"/>
</linearGradient>
<linearGradient id="paint37_linear_1_296" x1="183.027" y1="137.383" x2="183.027" y2="165.465" gradientUnits="userSpaceOnUse">
<stop stop-color="white"/>
<stop offset="1" stop-color="white" stop-opacity="0"/>
</linearGradient>
<linearGradient id="paint38_linear_1_296" x1="184.027" y1="153.383" x2="184.027" y2="202.772" gradientUnits="userSpaceOnUse">
<stop stop-color="white"/>
<stop offset="1" stop-color="white" stop-opacity="0"/>
</linearGradient>
<linearGradient id="paint39_linear_1_296" x1="87.1852" y1="114.89" x2="27.946" y2="1.67893" gradientUnits="userSpaceOnUse">
<stop stop-color="#960607"/>
<stop offset="1" stop-color="#BC0C0E"/>
</linearGradient>
<clipPath id="clip0_1_296">
<rect width="200" height="200" fill="white"/>
</clipPath>
</defs>
</svg>
