<svg xmlns="http://www.w3.org/2000/svg" width="1280" height="640" fill="none">
  <g clip-path="url(#a)">
    <path fill="#C70915" d="M0 0h1280v640H0z"/>
    <path fill="#FF0513" fill-rule="evenodd" d="m1389.8 143.6-2.3-6.4L-.5 645.7l2.3 6.4 1388-508.5ZM5.3 661.6l2.4 6.5 1388-508.5-2.3-6.4L5.4 661.7Zm1394-492.3L11.1 677.7l2.3 6.4 1388-508.4-2.3-6.4Zm5.8 16L17 693.7l2.3 6.4 1388-508.4-2.3-6.4Zm5.8 16L23 709.7l2.4 6.4 1388-508.4-2.4-6.4Zm6 16L28.7 725.7l2.3 6.4 1388-508.4-2.3-6.4ZM-4.2 636l1388-508.5-2.3-6.4-1388 508.5L-4 636Zm-5.8-16 1388-508.5-2.3-6.4-1388 508.5 2.3 6.4Zm-5.9-16 1388-508.5-2.3-6.4L-18 597.7l2.3 6.4Zm-5.8-16 1388-508.5-2.4-6.4L-24 581.7l2.4 6.4Zm-5.9-16 1388-508.5-2.3-6.4-1388 508.5 2.3 6.4Zm-5.9-16 1388-508.5-2.3-6.4-1388 508.5 2.3 6.4Zm-5.8-16 1388-508.5-2.3-6.4-1388 508.5 2.3 6.4Zm-5.9-16L1343 15.6l-2.3-6.4-1388 508.5 2.3 6.4Zm-5.8-16L1337-.5l-2.4-6.4-1388 508.4 2.4 6.4Zm-5.9-16 1388-508.5-2.3-6.4-1388 508.4 2.3 6.4Zm-5.9-16 1388-508.5-2.3-6.4L-65 469.6l2.3 6.4Zm-5.8-16 1388-508.5-2.4-6.4L-71 453.5l2.4 6.4Zm-5.9-16 1388-508.5-2.3-6.4-1388 508.4 2.3 6.4Zm-5.9-16 1388-508.5-2.3-6.4-1388 508.4 2.3 6.4Zm-5.8-16 1388-508.5-2.4-6.4-1388 508.4 2.4 6.4Zm-5.9-16 1388-508.5-2.3-6.4-1388 508.4 2.3 6.4Z" clip-rule="evenodd"/>
    <path fill="#FF0513" fill-rule="evenodd" d="m317.5-233.7-5.5 5 833.1 915 5.6-5-833.2-915ZM1159 673.7l5.5-5-833.1-915-5.6 5 833.2 915ZM339.7-254l833 915 5.6-5-833-915-5.6 5Zm13.8-12.6 833.1 915 5.6-5-833.1-915-5.6 5Zm783.3 960.3-833-915-5.6 5.1 833 915 5.6-5Zm-13.8 12.6-833.1-915-5.6 5.1 833.1 915 5.6-5Zm-14 12.7L276-196l-5.6 5.1 833.1 915 5.5-5Zm-13.8 12.6-833.1-915-5.5 5.1 833 915 5.6-5Zm-13.8 12.6-833-914.9-5.6 5 833.1 915 5.6-5Zm-13.9 12.6L234.6-158l-5.6 5 833 915 5.6-5Zm-13.8 12.6-833-914.9-5.6 5 833.2 915 5.5-5Zm-13.9 12.6L207-132.9l-5.6 5 833.1 915 5.5-5Zm-13.8 12.6L193-120.3l-5.5 5 833 915 5.6-5Zm-13.8 12.6-833-914.9-5.6 5 833.1 915 5.6-5Zm-13.9 12.6L165.4-95l-5.6 5 833 915 5.6-5Zm-13.8 12.6-833-914.9-5.6 5 833.2 915 5.5-5ZM970.7 845l-833-914.9-5.6 5 833.1 915 5.5-5ZM957 857.6 124-57.3l-5.6 5 833 915 5.6-5Zm-13.8 12.6L110-44.7l-5.6 5 833.1 915 5.6-5Zm-13.9 12.6L96.2-32l-5.6 5 833.1 915 5.5-5Zm-13.8 12.6L82.3-19.5l-5.5 5 833 915 5.6-5ZM901.6 908 68.5-6.9l-5.6 5 833.1 915 5.6-5Z" clip-rule="evenodd"/>
    <rect width="7.7" height="227.3" x="831" y="480.2" fill="url(#b)" rx="3.8" transform="rotate(-42.32 831 480.177)"/>
    <rect width="7.7" height="73.3" x="798" y="528.3" fill="url(#c)" rx="3.8" transform="rotate(-42.32 797.962 528.302)"/>
    <rect width="7.7" height="73.3" x="1053" y="558.2" fill="url(#d)" rx="3.8" transform="rotate(-42.32 1053 558.177)"/>
    <rect width="7.7" height="73.3" x="963" y="597.2" fill="url(#e)" rx="3.8" transform="rotate(-42.32 963 597.177)"/>
    <rect width="7.7" height="250.8" x="788" y="572.2" fill="url(#f)" rx="3.8" transform="rotate(-42.32 788 572.177)"/>
    <rect width="7.7" height="250.8" x="659.5" y="513.3" fill="url(#g)" rx="3.8" transform="rotate(-42.32 659.464 513.329)"/>
    <rect width="7.7" height="250.8" x="637" y="573.2" fill="url(#h)" rx="3.8" transform="rotate(-42.32 637.005 573.22)"/>
    <rect width="7.7" height="250.8" x="622" y="610.7" fill="url(#i)" rx="3.8" transform="rotate(-42.32 622.032 610.652)"/>
    <rect width="7.7" height="250.8" x="337.5" y="49.2" fill="url(#j)" rx="3.8" transform="rotate(-42.32 337.549 49.1724)"/>
    <rect width="7.7" height="250.8" x="423.6" y="4.3" fill="url(#k)" rx="3.8" transform="rotate(-42.32 423.643 4.25397)"/>
    <rect width="7.7" height="250.8" x="408.7" y="-40.7" fill="url(#l)" rx="3.8" transform="rotate(-42.32 408.67 -40.6644)"/>
    <rect width="7.7" height="250.8" x="303.9" y="-70.6" fill="url(#m)" rx="3.8" transform="rotate(-42.32 303.86 -70.61)"/>
    <rect width="7.7" height="250.8" x="214" y="-29.4" fill="url(#n)" rx="3.8" transform="rotate(-42.32 214.024 -29.4348)"/>
    <rect width="7.7" height="250.8" x="139.2" y="26.7" fill="url(#o)" rx="3.8" transform="rotate(-42.32 139.16 26.7131)"/>
    <rect width="7.7" height="250.8" x="416.2" y="-141.7" fill="url(#p)" rx="3.8" transform="rotate(-42.32 416.156 -141.731)"/>
    <rect width="7.7" height="92.2" x="591" y="-6.8" fill="url(#q)" rx="3.8" transform="rotate(-42.32 591 -6.823)"/>
    <rect width="7.7" height="92.2" x="163" y="-2.8" fill="url(#r)" rx="3.8" transform="rotate(-42.32 163 -2.823)"/>
    <rect width="7.7" height="92.2" x="136" y="79.2" fill="url(#s)" rx="3.8" transform="rotate(-42.32 136 79.177)"/>
    <rect width="7.7" height="92.2" x="270.2" y="86.6" fill="url(#t)" rx="3.8" transform="rotate(-42.32 270.172 86.6043)"/>
    <rect width="7.7" height="250.8" x="771" y="442.2" fill="url(#u)" rx="3.8" transform="rotate(-42.32 771 442.177)"/>
    <rect width="6.8" height="382.2" x="475.3" y="562.4" fill="url(#v)" rx="3.4" transform="rotate(69.8817 475.286 562.374)"/>
    <rect width="6.8" height="382.2" x="535.5" y="504.4" fill="url(#w)" rx="3.4" transform="rotate(69.8817 535.452 504.409)"/>
    <rect width="6.8" height="382.2" x="486.8" y="448.3" fill="url(#x)" rx="3.4" transform="rotate(69.8817 486.79 448.261)"/>
    <rect width="6.8" height="382.2" x="325.8" y="380.9" fill="url(#y)" rx="3.4" transform="rotate(69.8817 325.833 380.884)"/>
    <rect width="6.8" height="382.2" x="329.6" y="324.7" fill="url(#z)" rx="3.4" transform="rotate(69.8817 329.576 324.736)"/>
    <rect width="6.8" height="382.2" x="314.6" y="276.1" fill="url(#A)" rx="3.4" transform="rotate(69.8817 314.603 276.074)"/>
    <rect width="6.8" height="382.2" x="310.9" y="440.8" fill="url(#B)" rx="3.4" transform="rotate(69.8817 310.86 440.775)"/>
    <rect width="6.8" height="382.2" x="150.9" y="554" fill="url(#C)" rx="3.4" transform="rotate(69.8817 150.86 554)"/>
    <rect width="6.8" height="382.2" x="115.9" y="312" fill="url(#D)" rx="3.4" transform="rotate(69.8817 115.86 312)"/>
    <rect width="6.8" height="382.2" x="253.9" y="589" fill="url(#E)" rx="3.4" transform="rotate(69.8817 253.86 589)"/>
    <rect width="6.8" height="382.2" x="426.9" y="433.3" fill="url(#F)" rx="3.4" transform="rotate(69.8817 426.899 433.289)"/>
    <rect width="6.8" height="190.8" x="977.1" y="106.1" fill="url(#G)" rx="3.4" transform="rotate(69.8817 977.091 106.09)"/>
    <rect width="6.8" height="190.8" x="1089.4" y="81.4" fill="url(#H)" rx="3.4" transform="rotate(69.8817 1089.39 81.4282)"/>
    <rect width="6.8" height="190.8" x="1010.8" y="130.1" fill="url(#I)" rx="3.4" transform="rotate(69.8817 1010.78 130.09)"/>
    <rect width="6.8" height="190.8" x="1029.5" y="14.1" fill="url(#J)" rx="3.4" transform="rotate(69.8817 1029.5 14.0507)"/>
    <rect width="6.8" height="190.8" x="1055.7" y="186.2" fill="url(#K)" rx="3.4" transform="rotate(69.8817 1055.7 186.238)"/>
    <rect width="6.8" height="190.8" x="1123.1" y="197.5" fill="url(#L)" rx="3.4" transform="rotate(69.8817 1123.08 197.467)"/>
    <rect width="6.7" height="190.8" x="1302.3" y="23.3" fill="url(#M)" rx="3.4" transform="rotate(69.8817 1302.25 23.327)"/>
    <rect width="6.7" height="190.8" x="1226.1" y="142" fill="url(#N)" rx="3.4" transform="rotate(69.8817 1226.13 142)"/>
    <rect width="6.7" height="190.8" x="1149.1" y="25" fill="url(#O)" rx="3.4" transform="rotate(69.8817 1149.13 25)"/>
    <rect width="6.7" height="190.8" x="1293.1" y="81" fill="url(#P)" rx="3.4" transform="rotate(69.8817 1293.13 81)"/>
    <rect width="6.7" height="190.8" x="1303.1" y="167" fill="url(#Q)" rx="3.4" transform="rotate(69.8817 1303.13 167)"/>
    <rect width="6.7" height="190.8" x="1260.1" y="257" fill="url(#R)" rx="3.4" transform="rotate(69.8817 1260.13 257)"/>
    <rect width="6.8" height="190.8" x="1111.8" y="257.4" fill="url(#S)" rx="3.4" transform="rotate(69.8817 1111.85 257.358)"/>
    <rect width="6.8" height="73.5" x="975.5" y="177.9" fill="url(#T)" rx="3.4" transform="rotate(69.8817 975.54 177.909)"/>
    <rect width="6.8" height="73.5" x="1099" y="134" fill="url(#U)" rx="3.4" transform="rotate(69.8817 1099.02 134)"/>
    <rect width="6.8" height="73.5" x="1308" y="257" fill="url(#V)" rx="3.4" transform="rotate(69.8817 1308.02 257)"/>
    <rect width="6.8" height="73.5" x="1271" y="144" fill="url(#W)" rx="3.4" transform="rotate(69.8817 1271.02 144)"/>
    <rect width="6.8" height="73.5" x="1250" y="6" fill="url(#X)" rx="3.4" transform="rotate(69.8817 1250.02 6)"/>
    <rect width="6.8" height="73.5" x="904.4" y="96.4" fill="url(#Y)" rx="3.4" transform="rotate(69.8817 904.419 96.401)"/>
    <rect width="6.8" height="73.5" x="990.5" y="-8.4" fill="url(#Z)" rx="3.4" transform="rotate(69.8817 990.513 -8.40857)"/>
    <rect width="6.8" height="76.6" x="148.9" y="427" fill="url(#aa)" rx="3.4" transform="rotate(69.8817 148.923 427)"/>
    <rect width="6.8" height="76.6" x="352" y="444.5" fill="url(#ab)" rx="3.4" transform="rotate(69.8817 352.035 444.518)"/>
    <rect width="6.8" height="76.6" x="420.7" y="508.2" fill="url(#ac)" rx="3.4" transform="rotate(69.8817 420.702 508.153)"/>
    <rect width="6.8" height="76.6" x="52.9" y="498" fill="url(#ad)" rx="3.4" transform="rotate(69.8817 52.9235 498)"/>
    <rect width="7.7" height="409.2" x="977.3" y="418.7" fill="url(#ae)" rx="3.8" transform="rotate(-42.32 977.297 418.7)"/>
    <rect width="7.7" height="105.1" x="930" y="450.2" fill="url(#af)" rx="3.8" transform="rotate(-42.32 930 450.177)"/>
    <rect width="7.7" height="184.9" x="934" y="510.2" fill="url(#ag)" rx="3.8" transform="rotate(-42.32 934 510.177)"/>
    <rect width="6.8" height="73.5" x="1099" y="7" fill="url(#ah)" rx="3.4" transform="rotate(69.8817 1099.02 7)"/>
    <rect width="7.7" height="92.2" x="278" y="-15.8" fill="url(#ai)" rx="3.8" transform="rotate(-42.32 278 -15.823)"/>
    <rect width="7.7" height="73.3" x="722" y="527.2" fill="url(#aj)" rx="3.8" transform="rotate(-42.32 722 527.177)"/>
    <rect width="6.8" height="76.6" x="54.9" y="388" fill="url(#ak)" rx="3.4" transform="rotate(69.8817 54.9235 388)"/>
    <rect width="535.4" height="430.2" fill="url(#al)" rx="19" transform="matrix(0.939645 -0.34215 0.675229 0.737608 225.253 257.684)"/>
    <rect width="535.4" height="430.2" fill="#E30613" rx="19" transform="matrix(0.939645 -0.34215 0.675229 0.737608 225.253 242.711)"/>
    <path fill="#fff" d="m591.8 376.1-20-21.8-80.6 29.3-7.4-8.2 48.7-17.7-17.9-19.5L466 356l-6.2-6.8 81-29.5-20-21.8L395 343.6l71.5 78.1 125.3-45.6ZM699 263.9l-21.2-23.3-147.2 53.6 21.3 23.2 51-18.5 50.3 54.8 44.7-16.2-50.3-55L699 264Zm181.6 7.1-21.2-23.3-73.7 26.9-50.3-55-44.7 16.3 71.5 78.1 118.4-43Z"/>
  </g>
  <defs>
    <linearGradient id="b" x1="834.8" x2="834.8" y1="480.2" y2="707.5" gradientUnits="userSpaceOnUse">
      <stop stop-color="#fff"/>
      <stop offset="1" stop-color="#fff" stop-opacity="0"/>
    </linearGradient>
    <linearGradient id="c" x1="801.8" x2="801.8" y1="528.3" y2="601.6" gradientUnits="userSpaceOnUse">
      <stop stop-color="#fff"/>
      <stop offset="1" stop-color="#fff" stop-opacity="0"/>
    </linearGradient>
    <linearGradient id="d" x1="1056.8" x2="1056.8" y1="558.2" y2="631.5" gradientUnits="userSpaceOnUse">
      <stop stop-color="#fff"/>
      <stop offset="1" stop-color="#fff" stop-opacity="0"/>
    </linearGradient>
    <linearGradient id="e" x1="966.8" x2="966.8" y1="597.2" y2="670.5" gradientUnits="userSpaceOnUse">
      <stop stop-color="#fff"/>
      <stop offset="1" stop-color="#fff" stop-opacity="0"/>
    </linearGradient>
    <linearGradient id="f" x1="791.8" x2="791.8" y1="572.2" y2="823" gradientUnits="userSpaceOnUse">
      <stop stop-color="#fff"/>
      <stop offset="1" stop-color="#fff" stop-opacity="0"/>
    </linearGradient>
    <linearGradient id="g" x1="663.3" x2="663.3" y1="513.3" y2="764.2" gradientUnits="userSpaceOnUse">
      <stop stop-color="#fff"/>
      <stop offset="1" stop-color="#fff" stop-opacity="0"/>
    </linearGradient>
    <linearGradient id="h" x1="640.8" x2="640.8" y1="573.2" y2="824.1" gradientUnits="userSpaceOnUse">
      <stop stop-color="#fff"/>
      <stop offset="1" stop-color="#fff" stop-opacity="0"/>
    </linearGradient>
    <linearGradient id="i" x1="625.9" x2="625.9" y1="610.7" y2="861.5" gradientUnits="userSpaceOnUse">
      <stop stop-color="#fff"/>
      <stop offset="1" stop-color="#fff" stop-opacity="0"/>
    </linearGradient>
    <linearGradient id="j" x1="341.4" x2="341.4" y1="49.2" y2="300" gradientUnits="userSpaceOnUse">
      <stop stop-color="#fff" stop-opacity="0"/>
      <stop offset=".7" stop-color="#fff"/>
    </linearGradient>
    <linearGradient id="k" x1="427.5" x2="427.5" y1="4.3" y2="255.1" gradientUnits="userSpaceOnUse">
      <stop stop-color="#fff" stop-opacity="0"/>
      <stop offset=".7" stop-color="#fff"/>
    </linearGradient>
    <linearGradient id="l" x1="412.5" x2="412.5" y1="-40.7" y2="210.2" gradientUnits="userSpaceOnUse">
      <stop stop-color="#fff" stop-opacity="0"/>
      <stop offset=".7" stop-color="#fff"/>
    </linearGradient>
    <linearGradient id="m" x1="307.7" x2="307.7" y1="-70.6" y2="180.2" gradientUnits="userSpaceOnUse">
      <stop stop-color="#fff" stop-opacity="0"/>
      <stop offset=".7" stop-color="#fff"/>
    </linearGradient>
    <linearGradient id="n" x1="217.9" x2="217.9" y1="-29.4" y2="221.4" gradientUnits="userSpaceOnUse">
      <stop stop-color="#fff" stop-opacity="0"/>
      <stop offset=".7" stop-color="#fff"/>
    </linearGradient>
    <linearGradient id="o" x1="143" x2="143" y1="26.7" y2="277.6" gradientUnits="userSpaceOnUse">
      <stop stop-color="#fff" stop-opacity="0"/>
      <stop offset=".7" stop-color="#fff"/>
    </linearGradient>
    <linearGradient id="p" x1="420" x2="420" y1="-141.7" y2="109.1" gradientUnits="userSpaceOnUse">
      <stop stop-color="#fff" stop-opacity="0"/>
      <stop offset=".7" stop-color="#fff"/>
    </linearGradient>
    <linearGradient id="q" x1="594.8" x2="594.8" y1="-6.8" y2="85.4" gradientUnits="userSpaceOnUse">
      <stop stop-color="#fff" stop-opacity="0"/>
      <stop offset=".7" stop-color="#fff"/>
    </linearGradient>
    <linearGradient id="r" x1="166.8" x2="166.8" y1="-2.8" y2="89.4" gradientUnits="userSpaceOnUse">
      <stop stop-color="#fff" stop-opacity="0"/>
      <stop offset=".7" stop-color="#fff"/>
    </linearGradient>
    <linearGradient id="s" x1="139.8" x2="139.8" y1="79.2" y2="171.4" gradientUnits="userSpaceOnUse">
      <stop stop-color="#fff" stop-opacity="0"/>
      <stop offset=".7" stop-color="#fff"/>
    </linearGradient>
    <linearGradient id="t" x1="274" x2="274" y1="86.6" y2="178.8" gradientUnits="userSpaceOnUse">
      <stop stop-color="#fff" stop-opacity="0"/>
      <stop offset=".7" stop-color="#fff"/>
    </linearGradient>
    <linearGradient id="u" x1="774.8" x2="774.8" y1="442.2" y2="693" gradientUnits="userSpaceOnUse">
      <stop stop-color="#fff"/>
      <stop offset="1" stop-color="#fff" stop-opacity="0"/>
    </linearGradient>
    <linearGradient id="v" x1="478.7" x2="478.7" y1="562.4" y2="944.6" gradientUnits="userSpaceOnUse">
      <stop stop-color="#fff"/>
      <stop offset="1" stop-color="#fff" stop-opacity="0"/>
    </linearGradient>
    <linearGradient id="w" x1="538.9" x2="538.9" y1="504.4" y2="886.6" gradientUnits="userSpaceOnUse">
      <stop stop-color="#fff"/>
      <stop offset="1" stop-color="#fff" stop-opacity="0"/>
    </linearGradient>
    <linearGradient id="x" x1="490.2" x2="490.2" y1="448.3" y2="830.4" gradientUnits="userSpaceOnUse">
      <stop stop-color="#fff"/>
      <stop offset="1" stop-color="#fff" stop-opacity="0"/>
    </linearGradient>
    <linearGradient id="y" x1="329.2" x2="329.2" y1="380.9" y2="763.1" gradientUnits="userSpaceOnUse">
      <stop stop-color="#fff"/>
      <stop offset="1" stop-color="#fff" stop-opacity="0"/>
    </linearGradient>
    <linearGradient id="z" x1="333" x2="333" y1="324.7" y2="706.9" gradientUnits="userSpaceOnUse">
      <stop stop-color="#fff"/>
      <stop offset="1" stop-color="#fff" stop-opacity="0"/>
    </linearGradient>
    <linearGradient id="A" x1="318" x2="318" y1="276.1" y2="658.3" gradientUnits="userSpaceOnUse">
      <stop stop-color="#fff"/>
      <stop offset="1" stop-color="#fff" stop-opacity="0"/>
    </linearGradient>
    <linearGradient id="B" x1="314.3" x2="314.3" y1="440.8" y2="823" gradientUnits="userSpaceOnUse">
      <stop stop-color="#fff"/>
      <stop offset="1" stop-color="#fff" stop-opacity="0"/>
    </linearGradient>
    <linearGradient id="C" x1="154.3" x2="154.3" y1="554" y2="936.2" gradientUnits="userSpaceOnUse">
      <stop stop-color="#fff"/>
      <stop offset="1" stop-color="#fff" stop-opacity="0"/>
    </linearGradient>
    <linearGradient id="D" x1="119.3" x2="119.3" y1="312" y2="694.2" gradientUnits="userSpaceOnUse">
      <stop stop-color="#fff"/>
      <stop offset="1" stop-color="#fff" stop-opacity="0"/>
    </linearGradient>
    <linearGradient id="E" x1="257.3" x2="257.3" y1="589" y2="971.2" gradientUnits="userSpaceOnUse">
      <stop stop-color="#fff"/>
      <stop offset="1" stop-color="#fff" stop-opacity="0"/>
    </linearGradient>
    <linearGradient id="F" x1="430.3" x2="430.3" y1="433.3" y2="815.5" gradientUnits="userSpaceOnUse">
      <stop stop-color="#fff"/>
      <stop offset="1" stop-color="#fff" stop-opacity="0"/>
    </linearGradient>
    <linearGradient id="G" x1="980.5" x2="980.5" y1="106.1" y2="296.9" gradientUnits="userSpaceOnUse">
      <stop stop-color="#fff" stop-opacity="0"/>
      <stop offset="1" stop-color="#fff"/>
    </linearGradient>
    <linearGradient id="H" x1="1092.8" x2="1092.8" y1="81.4" y2="272.2" gradientUnits="userSpaceOnUse">
      <stop stop-color="#fff" stop-opacity="0"/>
      <stop offset="1" stop-color="#fff"/>
    </linearGradient>
    <linearGradient id="I" x1="1014.2" x2="1014.2" y1="130.1" y2="320.9" gradientUnits="userSpaceOnUse">
      <stop stop-color="#fff" stop-opacity="0"/>
      <stop offset="1" stop-color="#fff"/>
    </linearGradient>
    <linearGradient id="J" x1="1032.9" x2="1032.9" y1="14.1" y2="204.8" gradientUnits="userSpaceOnUse">
      <stop stop-color="#fff" stop-opacity="0"/>
      <stop offset="1" stop-color="#fff"/>
    </linearGradient>
    <linearGradient id="K" x1="1059.1" x2="1059.1" y1="186.2" y2="377" gradientUnits="userSpaceOnUse">
      <stop stop-color="#fff" stop-opacity="0"/>
      <stop offset="1" stop-color="#fff"/>
    </linearGradient>
    <linearGradient id="L" x1="1126.5" x2="1126.5" y1="197.5" y2="388.2" gradientUnits="userSpaceOnUse">
      <stop stop-color="#fff" stop-opacity="0"/>
      <stop offset="1" stop-color="#fff"/>
    </linearGradient>
    <linearGradient id="M" x1="1305.6" x2="1305.6" y1="23.3" y2="214.1" gradientUnits="userSpaceOnUse">
      <stop stop-color="#fff" stop-opacity="0"/>
      <stop offset="1" stop-color="#fff"/>
    </linearGradient>
    <linearGradient id="N" x1="1229.5" x2="1229.5" y1="142" y2="332.8" gradientUnits="userSpaceOnUse">
      <stop stop-color="#fff" stop-opacity="0"/>
      <stop offset="1" stop-color="#fff"/>
    </linearGradient>
    <linearGradient id="O" x1="1152.5" x2="1152.5" y1="25" y2="215.8" gradientUnits="userSpaceOnUse">
      <stop stop-color="#fff" stop-opacity="0"/>
      <stop offset="1" stop-color="#fff"/>
    </linearGradient>
    <linearGradient id="P" x1="1296.5" x2="1296.5" y1="81" y2="271.8" gradientUnits="userSpaceOnUse">
      <stop stop-color="#fff" stop-opacity="0"/>
      <stop offset="1" stop-color="#fff"/>
    </linearGradient>
    <linearGradient id="Q" x1="1306.5" x2="1306.5" y1="167" y2="357.8" gradientUnits="userSpaceOnUse">
      <stop stop-color="#fff" stop-opacity="0"/>
      <stop offset="1" stop-color="#fff"/>
    </linearGradient>
    <linearGradient id="R" x1="1263.5" x2="1263.5" y1="257" y2="447.8" gradientUnits="userSpaceOnUse">
      <stop stop-color="#fff" stop-opacity="0"/>
      <stop offset="1" stop-color="#fff"/>
    </linearGradient>
    <linearGradient id="S" x1="1115.3" x2="1115.3" y1="257.4" y2="448.1" gradientUnits="userSpaceOnUse">
      <stop stop-color="#fff" stop-opacity="0"/>
      <stop offset="1" stop-color="#fff"/>
    </linearGradient>
    <linearGradient id="T" x1="978.9" x2="978.9" y1="177.9" y2="251.4" gradientUnits="userSpaceOnUse">
      <stop stop-color="#fff" stop-opacity="0"/>
      <stop offset="1" stop-color="#fff"/>
    </linearGradient>
    <linearGradient id="U" x1="1102.4" x2="1102.4" y1="134" y2="207.5" gradientUnits="userSpaceOnUse">
      <stop stop-color="#fff" stop-opacity="0"/>
      <stop offset="1" stop-color="#fff"/>
    </linearGradient>
    <linearGradient id="V" x1="1311.4" x2="1311.4" y1="257" y2="330.5" gradientUnits="userSpaceOnUse">
      <stop stop-color="#fff" stop-opacity="0"/>
      <stop offset="1" stop-color="#fff"/>
    </linearGradient>
    <linearGradient id="W" x1="1274.4" x2="1274.4" y1="144" y2="217.5" gradientUnits="userSpaceOnUse">
      <stop stop-color="#fff" stop-opacity="0"/>
      <stop offset="1" stop-color="#fff"/>
    </linearGradient>
    <linearGradient id="X" x1="1253.4" x2="1253.4" y1="6" y2="79.5" gradientUnits="userSpaceOnUse">
      <stop stop-color="#fff" stop-opacity="0"/>
      <stop offset="1" stop-color="#fff"/>
    </linearGradient>
    <linearGradient id="Y" x1="907.8" x2="907.8" y1="96.4" y2="169.9" gradientUnits="userSpaceOnUse">
      <stop stop-color="#fff" stop-opacity="0"/>
      <stop offset="1" stop-color="#fff"/>
    </linearGradient>
    <linearGradient id="Z" x1="993.9" x2="993.9" y1="-8.4" y2="65.1" gradientUnits="userSpaceOnUse">
      <stop stop-color="#fff" stop-opacity="0"/>
      <stop offset="1" stop-color="#fff"/>
    </linearGradient>
    <linearGradient id="aa" x1="152.3" x2="152.3" y1="427" y2="503.6" gradientUnits="userSpaceOnUse">
      <stop stop-color="#fff"/>
      <stop offset="1" stop-color="#fff" stop-opacity="0"/>
    </linearGradient>
    <linearGradient id="ab" x1="355.4" x2="355.4" y1="444.5" y2="521.1" gradientUnits="userSpaceOnUse">
      <stop stop-color="#fff"/>
      <stop offset="1" stop-color="#fff" stop-opacity="0"/>
    </linearGradient>
    <linearGradient id="ac" x1="424.1" x2="424.1" y1="508.2" y2="584.8" gradientUnits="userSpaceOnUse">
      <stop stop-color="#fff"/>
      <stop offset="1" stop-color="#fff" stop-opacity="0"/>
    </linearGradient>
    <linearGradient id="ad" x1="56.3" x2="56.3" y1="498" y2="574.6" gradientUnits="userSpaceOnUse">
      <stop stop-color="#fff"/>
      <stop offset="1" stop-color="#fff" stop-opacity="0"/>
    </linearGradient>
    <linearGradient id="ae" x1="981.1" x2="981.1" y1="418.7" y2="827.9" gradientUnits="userSpaceOnUse">
      <stop stop-color="#fff"/>
      <stop offset="1" stop-color="#fff" stop-opacity="0"/>
    </linearGradient>
    <linearGradient id="af" x1="933.8" x2="933.8" y1="450.2" y2="555.3" gradientUnits="userSpaceOnUse">
      <stop stop-color="#fff"/>
      <stop offset="1" stop-color="#fff" stop-opacity="0"/>
    </linearGradient>
    <linearGradient id="ag" x1="937.8" x2="937.8" y1="510.2" y2="695" gradientUnits="userSpaceOnUse">
      <stop stop-color="#fff"/>
      <stop offset="1" stop-color="#fff" stop-opacity="0"/>
    </linearGradient>
    <linearGradient id="ah" x1="1102.4" x2="1102.4" y1="7" y2="80.5" gradientUnits="userSpaceOnUse">
      <stop stop-color="#fff" stop-opacity="0"/>
      <stop offset="1" stop-color="#fff"/>
    </linearGradient>
    <linearGradient id="ai" x1="281.8" x2="281.8" y1="-15.8" y2="76.4" gradientUnits="userSpaceOnUse">
      <stop stop-color="#fff" stop-opacity="0"/>
      <stop offset=".7" stop-color="#fff"/>
    </linearGradient>
    <linearGradient id="aj" x1="725.8" x2="725.8" y1="527.2" y2="600.5" gradientUnits="userSpaceOnUse">
      <stop stop-color="#fff"/>
      <stop offset="1" stop-color="#fff" stop-opacity="0"/>
    </linearGradient>
    <linearGradient id="ak" x1="58.3" x2="58.3" y1="388" y2="464.6" gradientUnits="userSpaceOnUse">
      <stop stop-color="#fff"/>
      <stop offset="1" stop-color="#fff" stop-opacity="0"/>
    </linearGradient>
    <linearGradient id="al" x1="326.4" x2="104.6" y1="430.1" y2="6.3" gradientUnits="userSpaceOnUse">
      <stop stop-color="#960607"/>
      <stop offset="1" stop-color="#BC0C0E"/>
    </linearGradient>
    <clipPath id="a">
      <path fill="#fff" d="M0 0h1280v640H0z"/>
    </clipPath>
  </defs>
</svg>
